<svg width="738pt" height="116pt" viewBox="0.00 0.00 738.00 116.00" xmlns="http://www.w3.org/2000/svg" xmlns: xlink="http://www.w3.org/1999/xlink">
  <g id="graph1" class="graph" transform="scale(1 1) rotate(0) translate(4 112)">
    <title>G</title>
    <polygon fill="white" stroke="white" points="-4,5 -4,-112 735,-112 735,5 -4,5"></polygon>
    <!-- main -->
<g id="node1" class="node"><title>main</title>
      <ellipse fill="none" stroke="black" cx="297" cy="-90" rx="30.0229" ry="18"></ellipse>
      <text text-anchor="middle" x="297" y="-85.8" font-family="Times,serif" font-size="14.00">main</text>
    </g>
    <!-- counter1 -->
<g id="node3" class="node"><title>counter1</title>
      <ellipse fill="none" stroke="black" cx="44" cy="-18" rx="44.2358" ry="18"></ellipse>
      <text text-anchor="middle" x="44" y="-13.8" font-family="Times,serif" font-size="14.00">counter1</text>
    </g>
    <!-- main&#45;&gt;counter1 -->
<g id="edge2" class="edge"><title>main-&gt;counter1</title>
      <path fill="none" stroke="black" d="M269.532,-82.0984C231.044,-72.334 158.943,-53.6989 98,-36 94.49,-34.9806 90.8603,-33.8987 87.2197,-32.7939"></path>
      <polygon fill="black" stroke="black" points="88.2193,-29.4396 77.6321,-29.8432 86.1602,-36.1299 88.2193,-29.4396"></polygon>
    </g>
    <!-- counter2 -->
<g id="node5" class="node"><title>counter2</title>
      <ellipse fill="none" stroke="black" cx="152" cy="-18" rx="44.2358" ry="18"></ellipse>
      <text text-anchor="middle" x="152" y="-13.8" font-family="Times,serif" font-size="14.00">counter2</text>
    </g>
    <!-- main&#45;&gt;counter2 -->
<g id="edge4" class="edge"><title>main-&gt;counter2</title>
      <path fill="none" stroke="black" d="M274.344,-78.0625C251.401,-66.9868 215.552,-49.6801 188.579,-36.6587"></path>
      <polygon fill="black" stroke="black" points="189.971,-33.4444 179.444,-32.2488 186.928,-39.7482 189.971,-33.4444"></polygon>
    </g>
    <!-- cycle&#45;color&#45;picker -->
<g id="node7" class="node"><title>cycle-color-picker</title>
      <ellipse fill="none" stroke="black" cx="297" cy="-18" rx="81.2154" ry="18"></ellipse>
      <text text-anchor="middle" x="297" y="-13.8" font-family="Times,serif" font-size="14.00">cycle-color-picker</text>
    </g>
    <!-- main&#45;&gt;cycle&#45;color&#45;picker -->
<g id="edge6" class="edge"><title>main-&gt;cycle-color-picker</title>
      <path fill="none" stroke="black" d="M297,-71.6966C297,-63.9827 297,-54.7125 297,-46.1124"></path>
      <polygon fill="black" stroke="black" points="300.5,-46.1043 297,-36.1043 293.5,-46.1044 300.5,-46.1043"></polygon>
    </g>
    <!-- cycle&#45;svg&#45;pan&#45;and&#45;zoom -->
<g id="node9" class="node"><title>cycle-svg-pan-and-zoom</title>
      <ellipse fill="none" stroke="black" cx="504" cy="-18" rx="107.035" ry="18"></ellipse>
      <text text-anchor="middle" x="504" y="-13.8" font-family="Times,serif" font-size="14.00">cycle-svg-pan-and-zoom</text>
    </g>
    <!-- main&#45;&gt;cycle&#45;svg&#45;pan&#45;and&#45;zoom -->
<g id="edge8" class="edge"><title>main-&gt;cycle-svg-pan-and-zoom</title>
      <path fill="none" stroke="black" d="M322.798,-80.276C354.203,-69.656 408.1,-51.4298 448.972,-37.6086"></path>
      <polygon fill="black" stroke="black" points="450.18,-40.8947 458.532,-34.3757 447.938,-34.2636 450.18,-40.8947"></polygon>
    </g>
    <!-- value&#45;calc -->
<g id="node11" class="node"><title>value-calc</title>
      <ellipse fill="none" stroke="black" cx="680" cy="-18" rx="50.5631" ry="18"></ellipse>
      <text text-anchor="middle" x="680" y="-13.8" font-family="Times,serif" font-size="14.00">value-calc</text>
    </g>
    <!-- main&#45;&gt;value&#45;calc -->
<g id="edge10" class="edge"><title>main-&gt;value-calc</title>
      <path fill="none" stroke="black" d="M326.165,-85.3441C383.058,-77.9639 512.676,-59.9284 620,-36 624.161,-35.0723 628.461,-34.0278 632.76,-32.9244"></path>
      <polygon fill="black" stroke="black" points="633.958,-36.2273 642.72,-30.2701 632.155,-29.4634 633.958,-36.2273"></polygon>
    </g>
  </g>
</svg>